<svg data-v-0dd9719b="" version="1.0" xmlns="http://www.w3.org/2000/svg" xmlns:xlink="http://www.w3.org/1999/xlink" width="100%" height="100%" viewBox="0 0 340.000000 250.000000" preserveAspectRatio="xMidYMid meet" color-interpolation-filters="sRGB" style="margin: auto;"> <rect data-v-0dd9719b="" x="0" y="0" width="100%" height="100%" fill="#fff" fill-opacity="1" class="background"></rect> <rect data-v-0dd9719b="" x="0" y="0" width="100%" height="100%" fill="url(#watermark)" fill-opacity="1" class="watermarklayer"></rect> <g data-v-0dd9719b="" fill="#333" class="icon-text-wrapper icon-svg-group iconsvg" transform="translate(54.214996337890625,94.99699974060059)"><g class="iconsvg-imagesvg" transform="translate(0,0)"><g><rect fill="#333" fill-opacity="0" stroke-width="2" x="0" y="0" width="60" height="60.006000600060005" class="image-rect"></rect> <svg x="0" y="0" width="60" height="60.006000600060005" filtersec="colorsb8099500330" class="image-svg-svg primary" style="overflow: visible;"><svg xmlns="http://www.w3.org/2000/svg" viewBox="0 0 99.98999786376953 100"><path d="M37.63 52c1 0 4.57-.19 6.86-.24.11-15.88-1.05-37.44-6-51.74-1.84 1.4-3.78 2.77-5.84 4.08 4.21 13.35 5.08 33.69 4.98 47.9z" fill="#fcc511"></path><path d="M33.65 37.18C22 36.45 11.34 34.93 4 32.59c-1.22 2-2.55 3.91-4 5.85 8.36 2.92 20.59 4.77 33.89 5.6-.06-2.35-.17-5.26-.24-6.86z" fill="#e50f5e"></path><path d="M62.82 33.65C63.55 22 65.07 11.34 67.41 4c-2-1.22-3.91-2.55-5.85-4-2.92 8.36-4.77 20.59-5.56 33.89 2.6-.07 5.68-.19 6.82-.24z" fill="#00a439"></path><path d="M48 37.63c0 .94.18 4.54.23 6.86 16 .1 37.44-1.06 51.71-6-1.4-1.84-2.77-3.78-4.08-5.84C82.5 36.87 62.5 37.73 48 37.63z" fill="#e50f5e"></path><path d="M66.2 56c.06 2.33.17 5.23.23 6.85 11.64.74 22.25 2.26 29.56 4.59 1.22-2 2.55-3.91 4-5.85C91.66 58.65 79.47 56.8 66.2 56z" fill="#0082c6"></path><path d="M62.37 48c-1.1.05-4.62.19-6.86.24-.09 15 1.08 37.46 6 51.68 1.84-1.4 3.78-2.77 5.84-4.08-4.17-13.17-5.08-33.96-4.98-47.84z" fill="#00a439"></path><path d="M37.18 66.41c-.74 11.64-2.26 22.26-4.59 29.59 2 1.22 3.91 2.55 5.85 4 2.91-8.35 4.77-20.55 5.6-33.83-2.69.07-5.81.2-6.86.24z" fill="#fcc511"></path><path d="M52.07 62.37c0-1-.18-4.58-.23-6.86-15.6-.1-37.41 1-51.8 6 1.4 1.84 2.77 3.78 4.08 5.84 13.28-4.19 34.03-5.08 47.95-4.98z" fill="#0082c6"></path></svg></svg> <!----></g></g> <g transform="translate(67,6.3717498779296875)"><g data-gra="path-name" fill-rule="" class="tp-name iconsvg-namesvg" transform="translate(0,0)"><g transform="scale(1)"><g><path d="M15.03-24.34L24.48-24.34 24.66-25.88 16.2-25.88 16.74-29.79 25.2-29.79 25.29-30.24 24.07-31.95 33.07-31.95 32.76-29.79 39.69-29.79 39.15-25.88 32.22-25.88 31.99-24.34 40.68-24.34 40.05-20.07 36.31-20.07 39.33-14.22 37.98-14.22 37.26-9.04 30.2-5.26 32.09-3.46 38.56-3.46 38.02 0.32 29.88 0.32 25.74-2.83 19.75 0.36 12.01 0.36 12.55-3.38 17.28-3.38 21.82-5.89 18.86-8.14 12.91-8.14 17.82-14.49 15.12-14.49 18.4-20.07 14.4-20.07 15.03-24.34ZM7.96-0.45L0.67-0.45 5-17.14 12.29-17.14 7.96-0.45ZM12.69-20.43L5.71-20.43 5.4-30.64 12.38-30.64 12.69-20.43ZM25.52-15.79L24.79-14.85 33.12-14.85 30.42-20.07 24.21-20.07 21.69-15.79 25.52-15.79ZM30.2-11.25L22.68-11.25 26.37-8.23 30.2-11.25ZM77.08-5.63L71.82-5.63 73.39-7.47 74.38-14.67 72.9-14.67 71.82-7.02 67.55-7.02 68.63-14.67 67.09-14.67 66.02-7.02 61.74-7.02 62.82-14.67 61.33-14.67 60.08-5.63 54.13-5.63 55.89-18.04 63.67-18.04 64.35-19.57 55.89-19.57 56.38-23.04 81.63-23.04 81.13-19.57 71.05-19.57 70.38-18.04 80.82-18.04 79.52-8.69Q79.29-7.42 78.59-6.52 77.89-5.63 77.08-5.63L77.08-5.63ZM49.45-0.4L42.07-0.4 44.86-4.81 46.89-19.3 45.23-19.3 45.85-23.85 54.58-23.85 52.06-5.98 57.69-4.63 79.97-4.63 79.38-0.36 54.54-0.36 50.27-1.67 49.45-0.4ZM63.99-31.14L63.45-27.45 66.64-27.45 67.09-30.55 66.02-31.95 73.3-31.95 72.67-27.45 75.69-27.45 76.23-31.18 82.13-31.18 81.13-24.21 57.1-24.21 58.09-31.14 63.99-31.14ZM46.57-31.14L53.32-31.14 54.67-25.56 47.92-25.56 46.57-31.14ZM100.35-25.11L104.76-25.11 100.03-14.17 101.47-3.82 97.52-3.82 97.02-7.92 95.49-3.78 91.66-3.78 91.08 0.32 84.15 0.32 88.33-29.47 87.03-31.18 122.85-31.18 118.8-2.25Q118.62-1.13 117.67-0.38 116.73 0.36 115.65 0.36L115.65 0.36 107.82 0.36 112.14-3.73 112.14-3.82 108.09-3.82 107.59-7.88 106.02-3.78 101.47-3.78 106.25-14.49 104.8-25.11 109.08-25.11 109.44-20.7 110.88-25.11 115.02-25.11 110.7-14.26 112.19-4.05 115.38-26.91 94.91-26.91 94.63-25.11 98.69-25.11 98.91-20.7 100.35-25.11ZM94.59-24.84L91.89-5.58 95.76-14.49 94.59-24.84ZM163.98-14.08L156.51-14.08 152.46-17.01 147.78-14.13 140.04-14.13 140.58-17.91 144.99-17.91 148.41-20.02 146.02-21.78 141.16-21.78 147.06-30.73 146.02-31.9 153.72-31.9 152.37-29.83 165.24-29.83 164.47-24.43 157.32-20.02 160.2-17.95 164.52-17.95 163.98-14.08ZM140.8-13.23L162.94-13.23 161.14-0.45 139-0.45 140.8-13.23ZM126.99-17.37L127.57-21.64 133.42-30.78 132.44-31.9 141.84-31.9 135.27-21.64 140.4-21.64 133.83-11.38 138.82-11.38 138.24-7.11 125.55-7.11 126.13-11.38 129.96-17.37 126.99-17.37ZM138.01-5.4L137.43-1.13 124.51-0.36 125.1-4.63 138.01-5.4ZM146.43-4.68L154.84-4.68 155.47-9 147.06-9 146.43-4.68ZM158.08-26.05L149.89-26.05 149.63-25.65 153.22-23.04 158.08-26.05Z" transform="translate(-0.6700000166893005, 31.950000762939453)"></path></g> <!----> <!----> <!----> <!----> <!----> <!----> <!----></g></g> <g data-gra="path-slogan" fill-rule="" class="tp-slogan iconsvg-slogansvg" fill="#333" transform="translate(5,38.310001373291016)"><rect x="0" height="1" y="3.9750003814697266" width="15.950004577636719"></rect> <rect height="1" y="3.9750003814697266" width="15.950004577636719" x="138.62000274658203"></rect> <g transform="translate(18.95000457763672,0)"><g transform="scale(1)"><path d="M0.89-8.58L2.06-8.58L2.06-1.03L6.42-1.03L6.42 0L0.89 0L0.89-8.58ZM7.73-8.58L8.91-8.58L8.91 0L7.73 0L7.73-8.58ZM12.28-8.58L16.59-1.64L16.59-8.58L17.72-8.58L17.72 0L16.41 0L12.05-6.94L12-6.94L12 0L10.88 0L10.88-8.58L12.28-8.58ZM25.92-3.61L23.30-3.61L23.30-4.59L27.05-4.59L27.05 0L26.30 0L26.02-1.08Q25.03 0.09 23.20 0.14L23.20 0.14Q21.47 0.14 20.53-0.75L20.53-0.75Q19.13-2.06 19.17-4.36L19.17-4.36Q19.50-8.63 23.25-8.81L23.25-8.81Q26.44-8.63 26.91-6L26.91-6L25.78-6Q25.31-7.78 23.20-7.83L23.20-7.83Q20.53-7.64 20.39-4.31L20.39-4.31Q20.39-0.75 23.25-0.75L23.25-0.75Q24.28-0.75 25.03-1.31L25.03-1.31Q25.97-2.06 25.92-3.61L25.92-3.61ZM35.77-8.58L32.53-3.47L32.53 0L31.36 0L31.36-3.47L28.13-8.58L29.48-8.58L31.92-4.45L34.41-8.58L35.77-8.58ZM42.47-3.19L42.47-8.58L43.64-8.58L43.64-3.05Q43.50 0.05 40.13 0.14L40.13 0.14Q36.98 0.05 36.84-2.86L36.84-2.86L36.84-8.58L38.02-8.58L38.02-3.19Q38.06-0.84 40.17-0.80L40.17-0.80Q42.47-0.84 42.47-3.19L42.47-3.19ZM46.83-8.58L51.14-1.64L51.14-8.58L52.27-8.58L52.27 0L50.95 0L46.59-6.94L46.55-6.94L46.55 0L45.42 0L45.42-8.58L46.83-8.58ZM58.78-8.58L63.09-1.64L63.09-8.58L64.22-8.58L64.22 0L62.91 0L58.55-6.94L58.50-6.94L58.50 0L57.38 0L57.38-8.58L58.78-8.58ZM67.31-1.03L72.47-1.03L72.47 0L66.14 0L66.14-8.58L72.38-8.58L72.38-7.59L67.31-7.59L67.31-4.92L72-4.92L72-3.89L67.31-3.89L67.31-1.03ZM76.17-7.59L73.27-7.59L73.27-8.58L80.20-8.58L80.20-7.59L77.30-7.59L77.30 0L76.17 0L76.17-7.59ZM86.02-7.13L85.97-7.13L84 0L82.78 0L80.53-8.58L81.75-8.58L83.39-1.59L83.44-1.59L85.36-8.58L86.63-8.58L88.55-1.59L88.59-1.59L90.19-8.58L91.45-8.58L89.20 0L87.98 0L86.02-7.13ZM99.33-4.27L99.33-4.27Q99.14-7.64 96.33-7.83L96.33-7.83Q93.47-7.69 93.33-4.27L93.33-4.27Q93.47-0.94 96.33-0.80L96.33-0.80Q99.14-0.98 99.33-4.27ZM100.50-4.27L100.50-4.27Q100.22 0 96.33 0.14L96.33 0.14Q92.39 0 92.11-4.27L92.11-4.27Q92.34-8.72 96.33-8.81L96.33-8.81Q100.22-8.67 100.50-4.27ZM105.98-3.70L103.17-3.70L103.17 0L102 0L102-8.58L105.98-8.58Q108.84-8.58 108.84-6.28L108.84-6.28Q108.84-4.88 107.63-4.22L107.63-4.22Q108.66-3.94 108.66-2.58L108.66-2.58L108.75-1.03Q108.70-0.38 109.17-0.19L109.17-0.19L109.17 0L107.72 0Q107.58-0.61 107.53-2.16L107.53-2.16Q107.58-3.70 105.98-3.70L105.98-3.70ZM106.08-7.64L103.17-7.64L103.17-4.69L105.89-4.69Q107.63-4.69 107.63-6.19L107.63-6.19Q107.63-7.64 106.08-7.64L106.08-7.64ZM113.02-4.31L111.66-3.05L111.66 0L110.48 0L110.48-8.58L111.66-8.58L111.66-4.41L115.83-8.58L117.47-8.58L113.86-5.11L117.56 0L116.02 0L113.02-4.31Z" transform="translate(-0.890625, 8.8125)"></path></g></g></g></g></g><defs v-gra="od"></defs></svg>